<svg width="49" height="48" viewBox="0 0 49 48" fill="none" xmlns="http://www.w3.org/2000/svg">
<path d="M24.7382 9.24156C29.5382 9.24156 30.1304 9.27273 32.0006 9.33506C33.746 9.42857 34.7123 9.70909 35.3356 9.95844C36.1772 10.2701 36.7694 10.6753 37.3928 11.2987C38.0162 11.9221 38.4214 12.5143 38.733 13.3558C38.9824 13.9792 39.2629 14.9455 39.3564 16.6909C39.4499 18.5922 39.4499 19.1532 39.4499 23.9532C39.4499 28.7532 39.4188 29.3455 39.3564 31.2156C39.2629 32.961 38.9824 33.9273 38.733 34.5506C38.4214 35.3922 38.0162 35.9844 37.3928 36.6078C36.7694 37.2312 36.1772 37.6364 35.3356 37.9481C34.7123 38.1974 33.746 38.4779 32.0006 38.5714C30.0993 38.6649 29.5382 38.6649 24.7382 38.6649C19.9382 38.6649 19.346 38.6338 17.4759 38.5714C15.7304 38.4779 14.7642 38.1974 14.1408 37.9481C13.2993 37.6364 12.7071 37.2312 12.0837 36.6078C11.4603 35.9844 11.0551 35.3922 10.7434 34.5506C10.4941 33.9273 10.2136 32.961 10.1201 31.2156C10.0266 29.3143 10.0266 28.7532 10.0266 23.9532C10.0266 19.1532 10.0577 18.561 10.1201 16.6909C10.2136 14.9455 10.4941 13.9792 10.7434 13.3558C11.0551 12.5143 11.4603 11.9221 12.0837 11.2987C12.7071 10.6753 13.2993 10.2701 14.1408 9.95844C14.7642 9.70909 15.7304 9.42857 17.4759 9.33506C19.346 9.27273 19.9382 9.24156 24.7382 9.24156ZM24.7382 6C19.8447 6 19.2214 6.03117 17.3201 6.09351C15.4188 6.18701 14.1097 6.4987 12.9564 6.93506C11.772 7.4026 10.7746 8.02597 9.7772 9.02338C8.74863 10.0208 8.12525 11.0182 7.65772 12.2026C7.22136 13.3558 6.90967 14.6649 6.81616 16.5662C6.75383 18.4987 6.72266 19.1221 6.72266 24.0156C6.72266 28.9091 6.75383 29.5325 6.81616 31.4338C6.90967 33.3351 7.22136 34.6442 7.65772 35.7974C8.12525 36.9818 8.74863 37.9792 9.74603 38.9766C10.7434 39.974 11.7408 40.5974 12.9253 41.0649C14.0785 41.5013 15.3876 41.813 17.2889 41.9065C19.2214 42 19.8136 42 24.7071 42C29.6006 42 30.224 41.9688 32.1253 41.9065C34.0266 41.813 35.3356 41.5013 36.4889 41.0649C37.6733 40.5974 38.6707 39.974 39.6681 38.9766C40.6655 37.9792 41.2889 36.9818 41.7564 35.7974C42.1928 34.6442 42.5045 33.3351 42.598 31.4338C42.6915 29.5013 42.6915 28.9091 42.6915 24.0156C42.6915 19.1221 42.6603 18.4987 42.598 16.5974C42.5045 14.6961 42.1928 13.387 41.7564 12.2338C41.2889 11.0494 40.6655 10.0519 39.6681 9.05455C38.6707 8.05714 37.6733 7.43377 36.4889 6.96623C35.3356 6.52987 34.0266 6.21818 32.1253 6.12468C30.224 6.03117 29.6317 6 24.7382 6Z" fill="white"/>
<path d="M24.7381 14.7583C19.6264 14.7583 15.481 18.9038 15.481 24.0154C15.481 29.1271 19.6264 33.2726 24.7381 33.2726C29.8498 33.2726 33.9952 29.1271 33.9952 24.0154C33.9952 18.9038 29.8498 14.7583 24.7381 14.7583ZM24.7381 29.9999C21.4342 29.9999 18.7225 27.3193 18.7225 23.9843C18.7225 20.6804 21.403 17.9687 24.7381 17.9687C28.0732 17.9687 30.7225 20.6804 30.7225 24.0154C30.7225 27.3193 28.042 29.9999 24.7381 29.9999Z" fill="white"/>
<path d="M34.3382 16.5347C35.5259 16.5347 36.4888 15.5718 36.4888 14.384C36.4888 13.1963 35.5259 12.2334 34.3382 12.2334C33.1504 12.2334 32.1875 13.1963 32.1875 14.384C32.1875 15.5718 33.1504 16.5347 34.3382 16.5347Z" fill="white"/>
</svg>
